# Blender 3.6.2
# www.blender.org
o Mesh001
v 0.560989 5.877044 -4.540583
v 0.560989 2.858842 -4.540583
v 0.560989 2.858842 -4.360257
v 0.560989 5.877044 -4.360256
v 0.549445 2.847298 -4.540583
v -1.580428 2.847298 -4.540577
v -1.580428 2.847298 -4.360251
v 0.549445 2.847298 -4.360257
v -1.580428 5.888589 -4.540578
v 0.549445 5.888589 -4.540583
v 0.549445 5.888589 -4.360256
v -1.580428 5.888589 -4.360251
v -1.591972 2.858842 -4.540577
v -1.591972 5.877044 -4.540578
v -1.591972 5.877044 -4.360251
v -1.591972 2.858842 -4.360251
v 0.560989 5.877044 -4.540583
v 0.560110 5.881461 -4.540583
v 0.559050 5.881572 -4.545111
v 0.560110 5.877044 -4.544999
v 0.560110 5.881461 -4.540583
v 0.557608 5.885206 -4.540583
v 0.557021 5.884619 -4.544880
v 0.559050 5.881572 -4.545111
v 0.560110 5.877044 -4.544999
v 0.559050 5.881572 -4.545111
v 0.557021 5.881343 -4.548158
v 0.557608 5.877044 -4.548745
v 0.559050 5.881572 -4.545111
v 0.557021 5.884619 -4.544880
v 0.556110 5.883710 -4.547246
v 0.557021 5.881343 -4.548158
v 0.549445 5.888589 -4.540583
v 0.549445 5.887709 -4.544999
v 0.553973 5.886649 -4.545111
v 0.553863 5.887709 -4.540583
v 0.549445 5.887709 -4.544999
v 0.549445 5.885206 -4.548745
v 0.553744 5.884619 -4.548158
v 0.553973 5.886649 -4.545111
v 0.553863 5.887709 -4.540583
v 0.553973 5.886649 -4.545111
v 0.557021 5.884619 -4.544880
v 0.557608 5.885206 -4.540583
v 0.553973 5.886649 -4.545111
v 0.553744 5.884619 -4.548158
v 0.556110 5.883710 -4.547246
v 0.557021 5.884619 -4.544880
v 0.549445 5.877044 -4.552125
v 0.553863 5.877044 -4.551247
v 0.553973 5.881572 -4.550186
v 0.549445 5.881461 -4.551247
v 0.553863 5.877044 -4.551247
v 0.557608 5.877044 -4.548745
v 0.557021 5.881343 -4.548158
v 0.553973 5.881572 -4.550186
v 0.549445 5.881461 -4.551247
v 0.553973 5.881572 -4.550186
v 0.553744 5.884619 -4.548158
v 0.549445 5.885206 -4.548745
v 0.553973 5.881572 -4.550186
v 0.557021 5.881343 -4.548158
v 0.556110 5.883710 -4.547246
v 0.553744 5.884619 -4.548158
v 0.549445 2.847298 -4.540583
v 0.553863 2.848178 -4.540583
v 0.553973 2.849238 -4.545112
v 0.549445 2.848178 -4.545000
v 0.553863 2.848178 -4.540583
v 0.557608 2.850680 -4.540583
v 0.557021 2.851267 -4.544880
v 0.553973 2.849238 -4.545112
v 0.549445 2.848178 -4.545000
v 0.553973 2.849238 -4.545112
v 0.553744 2.851267 -4.548159
v 0.549445 2.850680 -4.548745
v 0.553973 2.849238 -4.545112
v 0.557021 2.851267 -4.544880
v 0.556110 2.852177 -4.547246
v 0.553744 2.851267 -4.548159
v 0.560989 2.858842 -4.540583
v 0.560110 2.858842 -4.545000
v 0.559050 2.854314 -4.545112
v 0.560110 2.854426 -4.540583
v 0.560110 2.858842 -4.545000
v 0.557608 2.858842 -4.548745
v 0.557021 2.854543 -4.548159
v 0.559050 2.854314 -4.545112
v 0.560110 2.854426 -4.540583
v 0.559050 2.854314 -4.545112
v 0.557021 2.851267 -4.544880
v 0.557608 2.850680 -4.540583
v 0.559050 2.854314 -4.545112
v 0.557021 2.854543 -4.548159
v 0.556110 2.852177 -4.547246
v 0.557021 2.851267 -4.544880
v 0.549445 2.858842 -4.552125
v 0.549445 2.854426 -4.551247
v 0.553973 2.854314 -4.550187
v 0.553863 2.858842 -4.551247
v 0.549445 2.854426 -4.551247
v 0.549445 2.850680 -4.548745
v 0.553744 2.851267 -4.548159
v 0.553973 2.854314 -4.550187
v 0.553863 2.858842 -4.551247
v 0.553973 2.854314 -4.550187
v 0.557021 2.854543 -4.548159
v 0.557608 2.858842 -4.548745
v 0.553973 2.854314 -4.550187
v 0.553744 2.851267 -4.548159
v 0.556110 2.852177 -4.547246
v 0.557021 2.854543 -4.548159
v -1.591972 2.858842 -4.540577
v -1.591093 2.854426 -4.540577
v -1.590033 2.854314 -4.545106
v -1.591093 2.858842 -4.544997
v -1.591093 2.854426 -4.540577
v -1.588591 2.850680 -4.540577
v -1.588004 2.851267 -4.544877
v -1.590033 2.854314 -4.545106
v -1.591093 2.858842 -4.544997
v -1.590033 2.854314 -4.545106
v -1.588004 2.854543 -4.548153
v -1.588591 2.858842 -4.548740
v -1.590033 2.854314 -4.545106
v -1.588004 2.851267 -4.544877
v -1.587093 2.852177 -4.547243
v -1.588004 2.854543 -4.548153
v -1.580428 2.847298 -4.540577
v -1.580428 2.848178 -4.544997
v -1.584956 2.849238 -4.545106
v -1.584846 2.848178 -4.540577
v -1.580428 2.848178 -4.544997
v -1.580428 2.850680 -4.548740
v -1.584727 2.851267 -4.548153
v -1.584956 2.849238 -4.545106
v -1.584846 2.848178 -4.540577
v -1.584956 2.849238 -4.545106
v -1.588004 2.851267 -4.544877
v -1.588591 2.850680 -4.540577
v -1.584956 2.849238 -4.545106
v -1.584727 2.851267 -4.548153
v -1.587093 2.852177 -4.547243
v -1.588004 2.851267 -4.544877
v -1.580428 2.858842 -4.552122
v -1.584846 2.858842 -4.551242
v -1.584956 2.854314 -4.550182
v -1.580428 2.854426 -4.551242
v -1.584846 2.858842 -4.551242
v -1.588591 2.858842 -4.548740
v -1.588004 2.854543 -4.548153
v -1.584956 2.854314 -4.550182
v -1.580428 2.854426 -4.551242
v -1.584956 2.854314 -4.550182
v -1.584727 2.851267 -4.548153
v -1.580428 2.850680 -4.548740
v -1.584956 2.854314 -4.550182
v -1.588004 2.854543 -4.548153
v -1.587093 2.852177 -4.547243
v -1.584727 2.851267 -4.548153
v -1.580428 5.877044 -4.552122
v -1.580428 5.881461 -4.551243
v -1.584956 5.881572 -4.550182
v -1.584846 5.877044 -4.551243
v -1.580428 5.881461 -4.551243
v -1.580428 5.885206 -4.548740
v -1.584727 5.884619 -4.548153
v -1.584956 5.881572 -4.550182
v -1.584846 5.877044 -4.551243
v -1.584956 5.881572 -4.550182
v -1.588004 5.881343 -4.548153
v -1.588591 5.877044 -4.548740
v -1.584956 5.881572 -4.550182
v -1.584727 5.884619 -4.548153
v -1.587093 5.883710 -4.547243
v -1.588004 5.881343 -4.548153
v -1.580428 5.888589 -4.540578
v -1.584846 5.887709 -4.540578
v -1.584956 5.886649 -4.545106
v -1.580428 5.887709 -4.544995
v -1.584846 5.887709 -4.540578
v -1.588591 5.885206 -4.540578
v -1.588004 5.884619 -4.544877
v -1.584956 5.886649 -4.545106
v -1.580428 5.887709 -4.544995
v -1.584956 5.886649 -4.545106
v -1.584727 5.884619 -4.548153
v -1.580428 5.885206 -4.548740
v -1.584956 5.886649 -4.545106
v -1.588004 5.884619 -4.544877
v -1.587093 5.883710 -4.547243
v -1.584727 5.884619 -4.548153
v -1.591972 5.877044 -4.540578
v -1.591093 5.877044 -4.544995
v -1.590033 5.881572 -4.545106
v -1.591093 5.881461 -4.540578
v -1.591093 5.877044 -4.544995
v -1.588591 5.877044 -4.548740
v -1.588004 5.881343 -4.548153
v -1.590033 5.881572 -4.545106
v -1.591093 5.881461 -4.540578
v -1.590033 5.881572 -4.545106
v -1.588004 5.884619 -4.544877
v -1.588591 5.885206 -4.540578
v -1.590033 5.881572 -4.545106
v -1.588004 5.881343 -4.548153
v -1.587093 5.883710 -4.547243
v -1.588004 5.884619 -4.544877
v 0.549445 5.888589 -4.540583
v -1.580428 5.888589 -4.540578
v -1.580428 5.887709 -4.544995
v 0.549445 5.887709 -4.544999
v 0.549445 5.887709 -4.544999
v -1.580428 5.887709 -4.544995
v -1.580428 5.885206 -4.548740
v 0.549445 5.885206 -4.548745
v 0.549445 5.885206 -4.548745
v -1.580428 5.885206 -4.548740
v -1.580428 5.881461 -4.551243
v 0.549445 5.881461 -4.551247
v 0.549445 5.881461 -4.551247
v -1.580428 5.881461 -4.551243
v -1.580428 5.877044 -4.552122
v 0.549445 5.877044 -4.552125
v 0.549445 5.877044 -4.552125
v 0.549445 2.858842 -4.552125
v 0.553863 2.858842 -4.551247
v 0.553863 5.877044 -4.551247
v 0.553863 5.877044 -4.551247
v 0.553863 2.858842 -4.551247
v 0.557608 2.858842 -4.548745
v 0.557608 5.877044 -4.548745
v 0.557608 5.877044 -4.548745
v 0.557608 2.858842 -4.548745
v 0.560110 2.858842 -4.545000
v 0.560110 5.877044 -4.544999
v 0.560110 5.877044 -4.544999
v 0.560110 2.858842 -4.545000
v 0.560989 2.858842 -4.540583
v 0.560989 5.877044 -4.540583
v 0.549445 2.858842 -4.552125
v -1.580428 2.858842 -4.552122
v -1.580428 2.854426 -4.551242
v 0.549445 2.854426 -4.551247
v 0.549445 2.854426 -4.551247
v -1.580428 2.854426 -4.551242
v -1.580428 2.850680 -4.548740
v 0.549445 2.850680 -4.548745
v 0.549445 2.850680 -4.548745
v -1.580428 2.850680 -4.548740
v -1.580428 2.848178 -4.544997
v 0.549445 2.848178 -4.545000
v 0.549445 2.848178 -4.545000
v -1.580428 2.848178 -4.544997
v -1.580428 2.847298 -4.540577
v 0.549445 2.847298 -4.540583
v -1.580428 2.858842 -4.552122
v -1.580428 5.877044 -4.552122
v -1.584846 5.877044 -4.551243
v -1.584846 2.858842 -4.551242
v -1.584846 2.858842 -4.551242
v -1.584846 5.877044 -4.551243
v -1.588591 5.877044 -4.548740
v -1.588591 2.858842 -4.548740
v -1.588591 2.858842 -4.548740
v -1.588591 5.877044 -4.548740
v -1.591093 5.877044 -4.544995
v -1.591093 2.858842 -4.544997
v -1.591093 2.858842 -4.544997
v -1.591093 5.877044 -4.544995
v -1.591972 5.877044 -4.540578
v -1.591972 2.858842 -4.540577
v -1.580428 5.888589 -4.540578
v -1.580428 5.888589 -4.360251
v -1.584845 5.887709 -4.360251
v -1.584846 5.887709 -4.540578
v -1.584846 5.887709 -4.540578
v -1.584845 5.887709 -4.360251
v -1.588590 5.885206 -4.360251
v -1.588591 5.885206 -4.540578
v -1.588591 5.885206 -4.540578
v -1.588590 5.885206 -4.360251
v -1.591093 5.881461 -4.360251
v -1.591093 5.881461 -4.540578
v -1.591093 5.881461 -4.540578
v -1.591093 5.881461 -4.360251
v -1.591972 5.877044 -4.360251
v -1.591972 5.877044 -4.540578
v -1.580428 2.847298 -4.360251
v -1.580428 2.847298 -4.540577
v -1.584846 2.848178 -4.540577
v -1.584845 2.848178 -4.360251
v -1.584845 2.848178 -4.360251
v -1.584846 2.848178 -4.540577
v -1.588591 2.850680 -4.540577
v -1.588590 2.850680 -4.360251
v -1.588590 2.850680 -4.360251
v -1.588591 2.850680 -4.540577
v -1.591093 2.854426 -4.540577
v -1.591093 2.854426 -4.360251
v -1.591093 2.854426 -4.360251
v -1.591093 2.854426 -4.540577
v -1.591972 2.858842 -4.540577
v -1.591972 2.858842 -4.360251
v 0.560989 5.877044 -4.540583
v 0.560989 5.877044 -4.360256
v 0.560110 5.881461 -4.360256
v 0.560110 5.881461 -4.540583
v 0.560110 5.881461 -4.540583
v 0.560110 5.881461 -4.360256
v 0.557608 5.885206 -4.360256
v 0.557608 5.885206 -4.540583
v 0.557608 5.885206 -4.540583
v 0.557608 5.885206 -4.360256
v 0.553863 5.887709 -4.360256
v 0.553863 5.887709 -4.540583
v 0.553863 5.887709 -4.540583
v 0.553863 5.887709 -4.360256
v 0.549445 5.888589 -4.360256
v 0.549445 5.888589 -4.540583
v 0.549445 2.847298 -4.540583
v 0.549445 2.847298 -4.360257
v 0.553863 2.848178 -4.360257
v 0.553863 2.848178 -4.540583
v 0.553863 2.848178 -4.540583
v 0.553863 2.848178 -4.360257
v 0.557608 2.850680 -4.360257
v 0.557608 2.850680 -4.540583
v 0.557608 2.850680 -4.540583
v 0.557608 2.850680 -4.360257
v 0.560110 2.854426 -4.360257
v 0.560110 2.854426 -4.540583
v 0.560110 2.854426 -4.540583
v 0.560110 2.854426 -4.360257
v 0.560989 2.858842 -4.360257
v 0.560989 2.858842 -4.540583
v 0.549445 5.877044 -4.552125
v -1.580428 5.877044 -4.552122
v -1.580428 2.858842 -4.552122
v 0.549445 2.858842 -4.552125
vn 1.0000 -0.0000 -0.0000
vn -0.0000 -1.0000 -0.0000
vn -0.0000 1.0000 -0.0000
vn -1.0000 -0.0000 -0.0000
vn 0.9571 0.2050 -0.2050
vn 0.8152 0.5499 -0.1818
vn 0.8151 0.1818 -0.5500
vn 0.7168 0.4931 -0.4930
vn 0.2049 0.9571 -0.2049
vn 0.1818 0.8152 -0.5500
vn 0.5499 0.8152 -0.1818
vn 0.4931 0.7167 -0.4931
vn 0.2050 0.2050 -0.9571
vn 0.5500 0.1818 -0.8151
vn 0.1819 0.5499 -0.8151
vn 0.1819 0.5499 -0.8152
vn 0.4929 0.4931 -0.7169
vn 0.2049 -0.9571 -0.2048
vn 0.5500 -0.8152 -0.1817
vn 0.1818 -0.8152 -0.5500
vn 0.4931 -0.7167 -0.4932
vn 0.9571 -0.2049 -0.2049
vn 0.8152 -0.1818 -0.5500
vn 0.8152 -0.5499 -0.1818
vn 0.7167 -0.4931 -0.4931
vn 0.2049 -0.2049 -0.9571
vn 0.1818 -0.5499 -0.8152
vn 0.5499 -0.1818 -0.8152
vn 0.4931 -0.4931 -0.7167
vn -0.9571 -0.2049 -0.2049
vn -0.8152 -0.5499 -0.1819
vn -0.8152 -0.1818 -0.5500
vn -0.7168 -0.4930 -0.4931
vn -0.2050 -0.9571 -0.2048
vn -0.1819 -0.8151 -0.5500
vn -0.5500 -0.8152 -0.1818
vn -0.4930 -0.7167 -0.4932
vn -0.2049 -0.2049 -0.9571
vn -0.5499 -0.1819 -0.8152
vn -0.1818 -0.5499 -0.8152
vn -0.4931 -0.4931 -0.7167
vn -0.2050 0.2050 -0.9571
vn -0.1818 0.5499 -0.8152
vn -0.5500 0.1818 -0.8151
vn -0.4930 0.4931 -0.7168
vn -0.2049 0.9571 -0.2049
vn -0.5500 0.8152 -0.1818
vn -0.1818 0.8152 -0.5500
vn -0.4930 0.7168 -0.4931
vn -0.9571 0.2050 -0.2050
vn -0.8152 0.1818 -0.5499
vn -0.8152 0.5499 -0.1818
vn -0.7167 0.4931 -0.4931
vn -0.0000 0.9808 -0.1951
vn -0.0000 0.8314 -0.5557
vn -0.0000 0.8314 -0.5556
vn -0.0000 0.5557 -0.8314
vn -0.0000 0.5555 -0.8315
vn -0.0000 0.1952 -0.9808
vn -0.0000 0.1950 -0.9808
vn 0.1951 -0.0000 -0.9808
vn 0.1949 -0.0000 -0.9808
vn 0.5555 -0.0000 -0.8315
vn 0.8315 -0.0000 -0.5555
vn 0.8316 -0.0000 -0.5554
vn 0.9808 -0.0000 -0.1952
vn -0.0000 -0.1952 -0.9808
vn -0.0000 -0.5554 -0.8316
vn -0.0000 -0.8314 -0.5556
vn -0.0000 -0.8315 -0.5555
vn -0.0000 -0.9808 -0.1950
vn -0.0000 -0.9807 -0.1954
vn -0.1951 -0.0000 -0.9808
vn -0.5557 -0.0000 -0.8314
vn -0.5555 -0.0000 -0.8315
vn -0.8315 -0.0000 -0.5555
vn -0.8314 -0.0000 -0.5556
vn -0.9808 -0.0000 -0.1952
vn -0.9808 -0.0000 -0.1951
vn -0.1949 0.9808 -0.0000
vn -0.5557 0.8314 -0.0000
vn -0.8314 0.5557 -0.0000
vn -0.8315 0.5555 -0.0000
vn -0.9808 0.1952 -0.0000
vn -0.1950 -0.9808 -0.0000
vn -0.1949 -0.9808 -0.0000
vn -0.5555 -0.8315 -0.0000
vn -0.8316 -0.5554 -0.0000
vn -0.8315 -0.5555 -0.0000
vn -0.9808 -0.1949 -0.0000
vn -0.9809 -0.1948 -0.0000
vn 0.9808 0.1952 -0.0000
vn 0.8315 0.5555 -0.0000
vn 0.5557 0.8314 -0.0000
vn 0.1949 0.9808 -0.0000
vn 0.1950 0.9808 -0.0000
vn 0.1950 -0.9808 -0.0000
vn 0.1949 -0.9808 -0.0000
vn 0.5555 -0.8315 -0.0000
vn 0.8316 -0.5554 -0.0000
vn 0.9809 -0.1948 -0.0000
vn 0.9808 -0.1949 -0.0000
vn -0.0000 -0.0000 -1.0000
vt -0.002249 0.059678
vt -0.002249 0.995938
vt -0.054889 0.995938
vt -0.054891 0.059678
vt 0.006430 1.002889
vt 0.985990 1.002889
vt 0.985990 1.055529
vt 0.006430 1.055529
vt 0.985989 0.052727
vt 0.006430 0.052727
vt 0.006430 0.000086
vt 0.985989 0.000086
vt 0.994669 0.995938
vt 0.994669 0.059678
vt 1.047309 0.059678
vt 1.047309 0.995938
vt -0.002249 0.058307
vt -0.000927 0.058273
vt -0.000960 0.059678
vt -0.002249 0.057146
vt -0.000994 0.057328
vt 0.001454 0.058344
vt 0.001405 0.059678
vt -0.000304 0.057610
vt 0.006430 0.054016
vt 0.004347 0.054049
vt 0.004398 0.052727
vt 0.006430 0.056128
vt 0.004453 0.054938
vt 0.002946 0.053982
vt 0.002676 0.052727
vt 0.003365 0.054672
vt 0.006430 0.059678
vt 0.004398 0.059678
vt 0.004347 0.058273
vt 0.006430 0.058307
vt 0.004453 0.057328
vt 0.003365 0.057610
vt 0.004399 1.002889
vt 0.004348 1.001567
vt 0.006430 1.001599
vt 0.002676 1.002889
vt 0.002946 1.001634
vt 0.004453 0.999483
vt 0.006430 0.999488
vt 0.003365 1.000943
vt -0.000959 0.995938
vt -0.000927 0.997343
vt -0.002249 0.997308
vt 0.001405 0.995938
vt -0.000037 0.997271
vt -0.000994 0.998288
vt -0.002249 0.998470
vt -0.000303 0.998005
vt 0.006430 0.995938
vt 0.006430 0.997308
vt 0.004348 0.997343
vt 0.004399 0.995938
vt 0.002946 0.997271
vt 0.003365 0.998005
vt 0.994669 0.997308
vt 0.993347 0.997343
vt 0.993379 0.995938
vt 0.994669 0.998470
vt 0.993414 0.998288
vt 0.990966 0.997271
vt 0.991015 0.995938
vt 0.992723 0.998005
vt 0.985990 1.001599
vt 0.988072 1.001567
vt 0.988021 1.002889
vt 0.985990 0.999488
vt 0.987967 1.000677
vt 0.989474 1.001634
vt 0.989744 1.002889
vt 0.989055 1.000943
vt 0.985990 0.995938
vt 0.988021 0.995938
vt 0.988072 0.997343
vt 0.985990 0.997308
vt 0.987967 0.998288
vt 0.989055 0.998005
vt 0.985989 0.059678
vt 0.985990 0.058307
vt 0.988072 0.058273
vt 0.988021 0.059678
vt 0.985989 0.056128
vt 0.987966 0.056133
vt 0.989474 0.058344
vt 0.991015 0.059678
vt 0.989055 0.057610
vt 0.988021 0.052727
vt 0.988072 0.054049
vt 0.985989 0.054016
vt 0.989744 0.052727
vt 0.989474 0.053982
vt 0.989055 0.054672
vt 0.993379 0.059678
vt 0.993347 0.058273
vt 0.994668 0.058307
vt 0.992457 0.058344
vt 0.993414 0.057328
vt 0.994668 0.057145
vt 0.992723 0.057610
vt 0.988021 0.000086
vt 0.989744 0.000086
vt 1.047309 0.057145
vt 1.047309 0.058307
vt 0.988021 1.055529
vt 0.989744 1.055529
vt 1.047309 0.998470
vt 1.047309 0.997308
vt -0.054891 0.058307
vt -0.054891 0.057146
vt 0.002676 0.000086
vt 0.004398 0.000086
vt 0.004399 1.055529
vt 0.002676 1.055529
vt -0.054889 0.998470
vt -0.054889 0.997308
s 0
f 1/1/1 3/3/1 2/2/1
f 1/1/1 4/4/1 3/3/1
f 5/5/2 7/7/2 6/6/2
f 5/5/2 8/8/2 7/7/2
f 9/9/3 11/11/3 10/10/3
f 9/9/3 12/12/3 11/11/3
f 13/13/4 15/15/4 14/14/4
f 13/13/4 16/16/4 15/15/4
f 17/1/5 19/18/5 18/17/5
f 17/1/5 20/19/5 19/18/5
f 21/17/6 23/21/6 22/20/6
f 21/17/6 24/18/6 23/21/6
f 25/19/7 27/22/7 26/18/7
f 25/19/7 28/23/7 27/22/7
f 29/18/8 31/24/8 30/21/8
f 29/18/8 32/22/8 31/24/8
f 33/10/9 35/26/9 34/25/9
f 33/10/9 36/27/9 35/26/9
f 37/25/10 39/29/10 38/28/10
f 37/25/10 40/26/10 39/29/10
f 41/27/11 43/30/11 42/26/11
f 41/27/11 44/31/11 43/30/11
f 45/26/12 47/32/12 46/29/12
f 45/26/12 48/30/12 47/32/12
f 49/33/13 51/35/13 50/34/13
f 49/33/13 52/36/13 51/35/13
f 53/34/14 55/22/14 54/23/14
f 53/34/14 56/35/14 55/22/14
f 57/36/15 59/37/15 58/35/15
f 57/36/16 60/28/16 59/37/16
f 61/35/17 63/38/17 62/22/17
f 61/35/17 64/37/17 63/38/17
f 65/5/18 67/40/18 66/39/18
f 65/5/18 68/41/18 67/40/18
f 69/39/19 71/43/19 70/42/19
f 69/39/19 72/40/19 71/43/19
f 73/41/20 75/44/20 74/40/20
f 73/41/20 76/45/20 75/44/20
f 77/40/21 79/46/21 78/43/21
f 77/40/21 80/44/21 79/46/21
f 81/2/22 83/48/22 82/47/22
f 81/2/22 84/49/22 83/48/22
f 85/47/23 87/51/23 86/50/23
f 85/47/23 88/48/23 87/51/23
f 89/49/24 91/52/24 90/48/24
f 89/49/24 92/53/24 91/52/24
f 93/48/25 95/54/25 94/51/25
f 93/48/25 96/52/25 95/54/25
f 97/55/26 99/57/26 98/56/26
f 97/55/26 100/58/26 99/57/26
f 101/56/27 103/44/27 102/45/27
f 101/56/27 104/57/27 103/44/27
f 105/58/28 107/59/28 106/57/28
f 105/58/28 108/50/28 107/59/28
f 109/57/29 111/60/29 110/44/29
f 109/57/29 112/59/29 111/60/29
f 113/13/30 115/62/30 114/61/30
f 113/13/30 116/63/30 115/62/30
f 117/61/31 119/65/31 118/64/31
f 117/61/31 120/62/31 119/65/31
f 121/63/32 123/66/32 122/62/32
f 121/63/32 124/67/32 123/66/32
f 125/62/33 127/68/33 126/65/33
f 125/62/33 128/66/33 127/68/33
f 129/6/34 131/70/34 130/69/34
f 129/6/34 132/71/34 131/70/34
f 133/69/35 135/73/35 134/72/35
f 133/69/35 136/70/35 135/73/35
f 137/71/36 139/74/36 138/70/36
f 137/71/36 140/75/36 139/74/36
f 141/70/37 143/76/37 142/73/37
f 141/70/37 144/74/37 143/76/37
f 145/77/38 147/79/38 146/78/38
f 145/77/38 148/80/38 147/79/38
f 149/78/39 151/66/39 150/67/39
f 149/78/39 152/79/39 151/66/39
f 153/80/40 155/81/40 154/79/40
f 153/80/40 156/72/40 155/81/40
f 157/79/41 159/82/41 158/66/41
f 157/79/41 160/81/41 159/82/41
f 161/83/42 163/85/42 162/84/42
f 161/83/42 164/86/42 163/85/42
f 165/84/43 167/88/43 166/87/43
f 165/84/43 168/85/43 167/88/43
f 169/86/44 171/89/44 170/85/44
f 169/86/44 172/90/44 171/89/44
f 173/85/45 175/91/45 174/88/45
f 173/85/45 176/89/45 175/91/45
f 177/9/46 179/93/46 178/92/46
f 177/9/46 180/94/46 179/93/46
f 181/92/47 183/96/47 182/95/47
f 181/92/47 184/93/47 183/96/47
f 185/94/48 187/88/48 186/93/48
f 185/94/48 188/87/48 187/88/48
f 189/93/49 191/97/49 190/96/49
f 189/93/49 192/88/49 191/97/49
f 193/14/50 195/99/50 194/98/50
f 193/14/50 196/100/50 195/99/50
f 197/98/51 199/101/51 198/90/51
f 197/98/51 200/99/51 199/101/51
f 201/100/52 203/102/52 202/99/52
f 201/100/52 204/103/52 203/102/52
f 205/99/53 207/104/53 206/101/53
f 205/99/53 208/102/53 207/104/53
f 209/10/54 211/94/54 210/9/54
f 209/10/54 212/25/54 211/94/54
f 213/25/55 215/87/55 214/94/55
f 213/25/56 216/28/56 215/87/56
f 217/28/57 219/84/57 218/87/57
f 217/28/58 220/36/58 219/84/58
f 221/36/59 223/83/59 222/84/59
f 221/36/60 224/33/60 223/83/60
f 225/33/61 227/58/61 226/55/61
f 225/33/62 228/34/62 227/58/62
f 229/34/63 231/50/63 230/58/63
f 229/34/63 232/23/63 231/50/63
f 233/23/64 235/47/64 234/50/64
f 233/23/65 236/19/65 235/47/65
f 237/19/66 239/2/66 238/47/66
f 237/19/66 240/1/66 239/2/66
f 241/55/67 243/80/67 242/77/67
f 241/55/67 244/56/67 243/80/67
f 245/56/68 247/72/68 246/80/68
f 245/56/68 248/45/68 247/72/68
f 249/45/69 251/69/69 250/72/69
f 249/45/70 252/41/70 251/69/70
f 253/41/71 255/6/71 254/69/71
f 253/41/72 256/5/72 255/6/72
f 257/77/73 259/86/73 258/83/73
f 257/77/73 260/78/73 259/86/73
f 261/78/74 263/90/74 262/86/74
f 261/78/75 264/67/75 263/90/75
f 265/67/76 267/98/76 266/90/76
f 265/67/77 268/63/77 267/98/77
f 269/63/78 271/14/78 270/98/78
f 269/63/79 272/13/79 271/14/79
f 273/9/80 275/105/80 274/12/80
f 273/9/80 276/92/80 275/105/80
f 277/92/81 279/106/81 278/105/81
f 277/92/81 280/95/81 279/106/81
f 281/103/82 283/108/82 282/107/82
f 281/103/83 284/100/83 283/108/83
f 285/100/84 287/15/84 286/108/84
f 285/100/84 288/14/84 287/15/84
f 289/7/85 291/71/85 290/6/85
f 289/7/86 292/109/86 291/71/86
f 293/109/87 295/75/87 294/71/87
f 293/109/87 296/110/87 295/75/87
f 297/111/88 299/61/88 298/64/88
f 297/111/89 300/112/89 299/61/89
f 301/112/90 303/13/90 302/61/90
f 301/112/91 304/16/91 303/13/91
f 305/1/92 307/113/92 306/4/92
f 305/1/92 308/17/92 307/113/92
f 309/17/93 311/114/93 310/113/93
f 309/17/93 312/20/93 311/114/93
f 313/31/94 315/116/94 314/115/94
f 313/31/94 316/27/94 315/116/94
f 317/27/95 319/11/95 318/116/95
f 317/27/96 320/10/96 319/11/96
f 321/5/97 323/117/97 322/8/97
f 321/5/98 324/39/98 323/117/98
f 325/39/99 327/118/99 326/117/99
f 325/39/99 328/42/99 327/118/99
f 329/53/100 331/120/100 330/119/100
f 329/53/100 332/49/100 331/120/100
f 333/49/101 335/3/101 334/120/101
f 333/49/102 336/2/102 335/3/102
f 337/33/103 339/77/103 338/83/103
f 337/33/103 340/55/103 339/77/103
