# Blender 3.6.2
# www.blender.org
o glass1
v 5.114748 1.826023 0.854830
v 5.114747 1.826023 -2.360440
v 5.114746 6.759401 -2.360439
v 5.114747 6.759401 0.854831
v 5.114748 1.826023 0.854830
v 5.013922 1.826023 0.854830
v 5.013922 1.826023 -2.360440
v 5.114748 1.826023 0.854830
v 5.114747 1.826023 -2.360440
v 5.114747 1.826023 -2.360440
v 5.013922 1.826023 -2.360440
v 5.013921 6.759401 -2.360439
v 5.114746 6.759401 -2.360439
v 5.114746 6.759401 -2.360439
v 5.013921 6.759401 -2.360439
v 5.013921 6.759401 0.854831
v 5.114747 6.759401 0.854831
v 5.114747 6.759401 0.854831
v 5.013921 6.759401 0.854831
v 5.013922 1.826023 0.854830
v 5.114747 6.759401 0.854831
v 5.013922 1.826023 0.854830
v 5.114748 1.826023 0.854830
v 5.013922 1.826023 0.854830
v 5.013921 6.759401 0.854831
v 5.013921 6.759401 -2.360439
v 5.013922 1.826023 0.854830
v 5.013921 6.759401 -2.360439
v 5.013922 1.826023 -2.360440
vn 1.0000 -0.0000 -0.0000
vn -0.0000 -1.0000 -0.0000
vn -0.0000 -0.0000 -1.0000
vn -0.0000 1.0000 -0.0000
vn -0.0000 -0.0000 1.0000
vn -1.0000 -0.0000 -0.0000
vt 0.059811 0.985275
vt 0.977848 0.985275
vt 0.977848 0.010795
vt 0.059811 0.010795
vt 0.940189 0.624422
vt 0.940189 0.389559
vt 0.022152 0.389560
vt 0.022152 0.624423
vt 0.375577 0.985275
vt 0.610440 0.985275
vt 0.610440 0.010795
vt 0.375577 0.010795
vt 0.977848 0.624423
vt 0.977848 0.389560
vt 0.059811 0.389559
vt 0.059811 0.624422
vt 0.624422 0.010795
vt 0.389559 0.010795
vt 0.389559 0.985275
vt 0.624422 0.985275
vt 0.940189 0.985275
vt 0.940189 0.010795
vt 0.022152 0.010795
vt 0.022152 0.985275
s 0
f 1/1/1 2/2/1 3/3/1
f 1/1/1 3/3/1 4/4/1
f 5/5/2 6/6/2 7/7/2
f 8/5/2 7/7/2 9/8/2
f 10/9/3 11/10/3 12/11/3
f 10/9/3 12/11/3 13/12/3
f 14/13/4 15/14/4 16/15/4
f 14/13/4 16/15/4 17/16/4
f 18/17/5 19/18/5 20/19/5
f 21/17/5 22/19/5 23/20/5
f 24/21/6 25/22/6 26/23/6
f 27/21/6 28/23/6 29/24/6
