# Blender 3.6.2
# www.blender.org
o glass2
v 4.919115 1.976599 -0.496079
v 4.919115 1.976599 -3.745704
v 4.919114 6.909978 -3.745703
v 4.919114 6.909978 -0.496079
v 4.919115 1.976599 -0.496079
v 4.818289 1.976599 -0.496079
v 4.818289 1.976599 -3.745704
v 4.919115 1.976599 -3.745704
v 4.919115 1.976599 -3.745704
v 4.818289 1.976599 -3.745704
v 4.818288 6.909978 -3.745703
v 4.919114 6.909978 -3.745703
v 4.919114 6.909978 -3.745703
v 4.818288 6.909978 -3.745703
v 4.818289 6.909978 -0.496079
v 4.919114 6.909978 -0.496079
v 4.919114 6.909978 -0.496079
v 4.818289 6.909978 -0.496079
v 4.818289 1.976599 -0.496079
v 4.919115 1.976599 -0.496079
v 4.818289 1.976599 -0.496079
v 4.818289 6.909978 -0.496079
v 4.818288 6.909978 -3.745703
v 4.818289 1.976599 -3.745704
vn 1.0000 -0.0000 -0.0000
vn -0.0000 -1.0000 -0.0000
vn -0.0000 -0.0000 -1.0000
vn -0.0000 1.0000 -0.0000
vn -0.0000 -0.0000 1.0000
vn -1.0000 -0.0000 -0.0000
vt 0.773358 0.985275
vt 0.226639 0.985275
vt 0.977350 0.773361
vt 0.773357 0.010795
vt 0.971855 0.985275
vt 0.022650 0.985275
vt 0.022650 0.010795
vt 0.971855 0.010795
s 0
f 1/1/1 2/2/1 3/3/1
f 1/1/1 3/3/1 4/4/1
f 5/1/2 6/5/2 7/6/2
f 5/1/2 7/6/2 8/2/2
f 9/2/3 10/6/3 11/7/3
f 9/2/3 11/7/3 12/3/3
f 13/3/4 14/7/4 15/8/4
f 13/3/4 15/8/4 16/4/4
f 17/4/5 18/8/5 19/5/5
f 17/4/5 19/5/5 20/1/5
f 21/5/6 22/8/6 23/7/6
f 21/5/6 23/7/6 24/6/6
